<?xml version="1.0" encoding="iso-8859-1"?>
<!-- Generator: Adobe Illustrator 19.0.0, SVG Export Plug-In . SVG Version: 6.00 Build 0)  -->
<svg version="1.1" id="Capa_1" xmlns="http://www.w3.org/2000/svg" xmlns:xlink="http://www.w3.org/1999/xlink" x="0px" y="0px"
	 viewBox="0 0 512 512" style="enable-background:new 0 0 512 512;" xml:space="preserve">
<path style="fill:#82DCE6;" d="M512,256c0,141.385-114.615,256-256,256S0,397.385,0,256S114.615,0,256,0S512,114.615,512,256z"/>
<path style="fill:#AFF0F5;" d="M280,120H140c-8.284,0-15-6.716-15-15l0,0c0-8.284-6.716-15-15-15H61.13
	c9.222-10.815,19.327-20.851,30.206-30H200c8.284,0,15,6.716,15,15l0,0c0,8.284,6.716,15,15,15h49.606
	c7.7,0,14.455,5.641,15.3,13.294C295.904,112.342,288.846,120,280,120z M480,300h-65v-15c0-8.284-6.716-15-15-15H245
	c-8.284,0-15,6.716-15,15s6.716,15,15,15h80v15c0,8.284,6.716,15,15,15h140c8.284,0,15-6.716,15-15S488.284,300,480,300z M365,205
	c0,8.284,6.716,15,15,15h80v15c0,8.284,6.716,15,15,15h36.924c-0.476-20.702-3.42-40.793-8.531-60H380
	C371.716,190,365,196.716,365,205z M245.424,40H310c8.284,0,15,6.716,15,15l0,0c0,8.284,6.716,15,15,15h91.884
	c-29.265-27.684-65.058-48.533-104.831-60H245c-8.525,0-15.388,7.111-14.983,15.725C230.397,33.793,237.347,40,245.424,40z"/>
<path style="fill:#1E233C;" d="M335,10c-30.327,0-55,24.673-55,55v110c0,30.327,24.673,55,55,55s55-24.673,55-55V65
	C390,34.673,365.327,10,335,10z M370,175c0,19.299-15.701,35-35,35s-35-15.701-35-35V65c0-19.299,15.701-35,35-35s35,15.701,35,35
	V175z"/>
<path style="fill:#6D7D99;" d="M260,150L260,150c0,22.091-17.909,40-40,40h-20c-22.091,0-40-17.909-40-40l0,0
	c0-18.638,12.748-34.299,30-38.74V105c0-2.761,2.239-5,5-5h30c2.761,0,5,2.239,5,5v6.26C247.252,115.701,260,131.362,260,150z
	 M120,111.26V105c0-2.761-2.239-5-5-5H85c-2.761,0-5,2.239-5,5v6.26C62.748,115.7,50,131.361,50,150l0,0c0,22.091,17.909,40,40,40
	h20c22.091,0,40-17.909,40-40l0,0C150,131.362,137.252,115.701,120,111.26z M400,73.427V65c0-2.761-2.239-5-5-5h-30
	c-2.761,0-5,2.239-5,5v8.427c-23.301,8.238-40,30.45-40,56.573v260h120V130C440,103.878,423.301,81.666,400,73.427z"/>
<path style="fill:#5A6482;" d="M80,150c0,20.397,15.27,37.216,35,39.678c-1.639,0.205-3.305,0.322-5,0.322H90
	c-22.091,0-40-17.909-40-40c0-18.638,12.748-34.299,30-38.74V105c0-2.761,2.239-5,5-5h30c-2.761,0-5,2.239-5,5v6.26
	C92.748,115.701,80,131.362,80,150z M220,111.26V105c0-2.761,2.239-5,5-5h-30c-2.761,0-5,2.239-5,5v6.26
	c-17.252,4.44-30,20.101-30,38.74c0,22.091,17.909,40,40,40h20c1.695,0,3.361-0.118,5-0.322c-19.73-2.462-35-19.281-35-39.678
	C190,131.362,202.748,115.701,220,111.26z M365,60c-2.761,0-5,2.239-5,5v8.427c-23.301,8.238-40,30.45-40,56.573v260h30V130
	c0-26.122,16.699-48.334,40-56.573V65c0-2.761,2.239-5,5-5H365z"/>
<path style="fill:#E6B464;" d="M18.628,160H380v230H37.845C13.851,351.021,0,305.13,0,256C0,222.048,6.625,189.648,18.628,160z"/>
<path style="fill:#D29650;" d="M390,155v10c0,2.761-2.239,5-5,5H14.822c2.426-6.803,5.123-13.477,8.094-20H385
	C387.761,150,390,152.239,390,155z M117.162,300H35c-2.761,0-5,2.239-5,5v71.323c2.479,4.646,5.094,9.207,7.845,13.677h79.317
	c2.761,0,5-2.239,5-5v-80C122.162,302.239,119.924,300,117.162,300z M335,300h-82.162c-2.761,0-5,2.239-5,5v80c0,2.761,2.239,5,5,5
	H335c2.761,0,5-2.239,5-5v-80C340,302.239,337.761,300,335,300z M226.081,300h-82.162c-2.761,0-5,2.239-5,5v80c0,2.761,2.239,5,5,5
	h82.162c2.761,0,5-2.239,5-5v-80C231.081,302.239,228.843,300,226.081,300z"/>
<path style="fill:#323750;" d="M55,202v26c0,1.104-0.896,2-2,2H17c-1.104,0-2-0.896-2-2v-26c0-1.105,0.896-2,2-2h36
	C54.104,200,55,200.895,55,202z M103,200H67c-1.104,0-2,0.895-2,2v26c0,1.104,0.896,2,2,2h36c1.104,0,2-0.896,2-2v-26
	C105,200.895,104.104,200,103,200z M153,200h-36c-1.104,0-2,0.895-2,2v26c0,1.104,0.896,2,2,2h36c1.104,0,2-0.896,2-2v-26
	C155,200.895,154.104,200,153,200z M203,200h-36c-1.104,0-2,0.895-2,2v26c0,1.104,0.896,2,2,2h36c1.104,0,2-0.896,2-2v-26
	C205,200.895,204.104,200,203,200z M253,200h-36c-1.104,0-2,0.895-2,2v26c0,1.104,0.896,2,2,2h36c1.104,0,2-0.896,2-2v-26
	C255,200.895,254.104,200,253,200z M303,200h-36c-1.104,0-2,0.895-2,2v26c0,1.104,0.896,2,2,2h36c1.104,0,2-0.896,2-2v-26
	C305,200.895,304.104,200,303,200z M353,200h-36c-1.104,0-2,0.895-2,2v26c0,1.104,0.896,2,2,2h36c1.104,0,2-0.896,2-2v-26
	C355,200.895,354.104,200,353,200z M53,240H17c-1.104,0-2,0.895-2,2v26c0,1.104,0.896,2,2,2h36c1.104,0,2-0.896,2-2v-26
	C55,240.895,54.104,240,53,240z M103,240H67c-1.104,0-2,0.895-2,2v26c0,1.104,0.896,2,2,2h36c1.104,0,2-0.896,2-2v-26
	C105,240.895,104.104,240,103,240z M153,240h-36c-1.104,0-2,0.895-2,2v26c0,1.104,0.896,2,2,2h36c1.104,0,2-0.896,2-2v-26
	C155,240.895,154.104,240,153,240z M203,240h-36c-1.104,0-2,0.895-2,2v26c0,1.104,0.896,2,2,2h36c1.104,0,2-0.896,2-2v-26
	C205,240.895,204.104,240,203,240z M253,240h-36c-1.104,0-2,0.895-2,2v26c0,1.104,0.896,2,2,2h36c1.104,0,2-0.896,2-2v-26
	C255,240.895,254.104,240,253,240z M303,240h-36c-1.104,0-2,0.895-2,2v26c0,1.104,0.896,2,2,2h36c1.104,0,2-0.896,2-2v-26
	C305,240.895,304.104,240,303,240z M353,240h-36c-1.104,0-2,0.895-2,2v26c0,1.104,0.896,2,2,2h36c1.104,0,2-0.896,2-2v-26
	C355,240.895,354.104,240,353,240z"/>
<path style="fill:#1E233C;" d="M355,242v26c0,1.104-0.896,2-2,2h-15c1.104,0,2-0.896,2-2v-26c0-1.105-0.896-2-2-2h15
	C354.104,240,355,240.895,355,242z M353,200h-15c1.104,0,2,0.895,2,2v26c0,1.104-0.896,2-2,2h15c1.104,0,2-0.896,2-2v-26
	C355,200.895,354.104,200,353,200z M303,240h-15c1.104,0,2,0.895,2,2v26c0,1.104-0.896,2-2,2h15c1.104,0,2-0.896,2-2v-26
	C305,240.895,304.104,240,303,240z M303,200h-15c1.104,0,2,0.895,2,2v26c0,1.104-0.896,2-2,2h15c1.104,0,2-0.896,2-2v-26
	C305,200.895,304.104,200,303,200z M253,240h-15c1.104,0,2,0.895,2,2v26c0,1.104-0.896,2-2,2h15c1.104,0,2-0.896,2-2v-26
	C255,240.895,254.104,240,253,240z M253,200h-15c1.104,0,2,0.895,2,2v26c0,1.104-0.896,2-2,2h15c1.104,0,2-0.896,2-2v-26
	C255,200.895,254.104,200,253,200z M203,240h-15c1.104,0,2,0.895,2,2v26c0,1.104-0.896,2-2,2h15c1.104,0,2-0.896,2-2v-26
	C205,240.895,204.104,240,203,240z M203,200h-15c1.104,0,2,0.895,2,2v26c0,1.104-0.896,2-2,2h15c1.104,0,2-0.896,2-2v-26
	C205,200.895,204.104,200,203,200z M153,240h-15c1.104,0,2,0.895,2,2v26c0,1.104-0.896,2-2,2h15c1.104,0,2-0.896,2-2v-26
	C155,240.895,154.104,240,153,240z M153,200h-15c1.104,0,2,0.895,2,2v26c0,1.104-0.896,2-2,2h15c1.104,0,2-0.896,2-2v-26
	C155,200.895,154.104,200,153,200z M103,240H88c1.104,0,2,0.895,2,2v26c0,1.104-0.896,2-2,2h15c1.104,0,2-0.896,2-2v-26
	C105,240.895,104.104,240,103,240z M103,200H88c1.104,0,2,0.895,2,2v26c0,1.104-0.896,2-2,2h15c1.104,0,2-0.896,2-2v-26
	C105,200.895,104.104,200,103,200z M53,240H38c1.104,0,2,0.895,2,2v26c0,1.104-0.896,2-2,2h15c1.104,0,2-0.896,2-2v-26
	C55,240.895,54.104,240,53,240z M53,200H38c1.104,0,2,0.895,2,2v26c0,1.104-0.896,2-2,2h15c1.104,0,2-0.896,2-2v-26
	C55,200.895,54.104,200,53,200z"/>
<path style="fill:#6D7D99;" d="M479.998,380C436.33,458.714,352.394,512,256,512S75.67,458.714,32.002,380H479.998z"/>
<path style="fill:#41465F;" d="M479.998,380c-5.404,9.741-11.427,19.091-18.011,28H50.013c-6.584-8.909-12.607-18.259-18.011-28H430
	V230c0-11.046,8.954-20,20-20s20,8.954,20,20v150H479.998z"/>
<path style="fill:#5A6482;" d="M132.004,480h247.993c-36.738,20.38-79.007,32-123.996,32S168.741,500.38,132.004,480z"/>
<g>
</g>
<g>
</g>
<g>
</g>
<g>
</g>
<g>
</g>
<g>
</g>
<g>
</g>
<g>
</g>
<g>
</g>
<g>
</g>
<g>
</g>
<g>
</g>
<g>
</g>
<g>
</g>
<g>
</g>
</svg>
